<mxfile host="app.diagrams.net" agent="Mozilla/5.0 (Windows NT 10.0; Win64; x64) AppleWebKit/537.36 (KHTML, like Gecko) Chrome/129.0.0.0 Safari/537.36" version="24.7.17">
  <diagram id="C5RBs43oDa-KdzZeNtuy" name="Page-1">
    <mxGraphModel dx="2232" dy="984" grid="1" gridSize="10" guides="1" tooltips="1" connect="1" arrows="1" fold="1" page="1" pageScale="1" pageWidth="827" pageHeight="1169" math="0" shadow="0">
      <root>
        <mxCell id="WIyWlLk6GJQsqaUBKTNV-0" />
        <mxCell id="WIyWlLk6GJQsqaUBKTNV-1" parent="WIyWlLk6GJQsqaUBKTNV-0" />
        <mxCell id="WIyWlLk6GJQsqaUBKTNV-2" value="" style="rounded=0;html=1;jettySize=auto;orthogonalLoop=1;fontSize=11;endArrow=block;endFill=0;endSize=8;strokeWidth=1;shadow=0;labelBackgroundColor=none;edgeStyle=orthogonalEdgeStyle;" parent="WIyWlLk6GJQsqaUBKTNV-1" source="WIyWlLk6GJQsqaUBKTNV-3" edge="1">
          <mxGeometry relative="1" as="geometry">
            <mxPoint x="479.94" y="180" as="targetPoint" />
          </mxGeometry>
        </mxCell>
        <mxCell id="WIyWlLk6GJQsqaUBKTNV-3" value="Start" style="rounded=1;whiteSpace=wrap;html=1;fontSize=12;glass=0;strokeWidth=1;shadow=0;" parent="WIyWlLk6GJQsqaUBKTNV-1" vertex="1">
          <mxGeometry x="419.94" y="90" width="120" height="40" as="geometry" />
        </mxCell>
        <mxCell id="yen1Nik3F_ZIqoTktXVY-3" value="" style="edgeStyle=orthogonalEdgeStyle;rounded=0;orthogonalLoop=1;jettySize=auto;html=1;" edge="1" parent="WIyWlLk6GJQsqaUBKTNV-1" source="yen1Nik3F_ZIqoTktXVY-0" target="yen1Nik3F_ZIqoTktXVY-2">
          <mxGeometry relative="1" as="geometry" />
        </mxCell>
        <mxCell id="yen1Nik3F_ZIqoTktXVY-0" value="Show logo from art.py" style="rounded=1;whiteSpace=wrap;html=1;fontSize=12;glass=0;strokeWidth=1;shadow=0;" vertex="1" parent="WIyWlLk6GJQsqaUBKTNV-1">
          <mxGeometry x="419.94" y="180" width="120" height="40" as="geometry" />
        </mxCell>
        <mxCell id="yen1Nik3F_ZIqoTktXVY-5" value="" style="edgeStyle=orthogonalEdgeStyle;rounded=0;orthogonalLoop=1;jettySize=auto;html=1;" edge="1" parent="WIyWlLk6GJQsqaUBKTNV-1" source="yen1Nik3F_ZIqoTktXVY-2" target="yen1Nik3F_ZIqoTktXVY-4">
          <mxGeometry relative="1" as="geometry" />
        </mxCell>
        <mxCell id="yen1Nik3F_ZIqoTktXVY-2" value="Ask for name input" style="whiteSpace=wrap;html=1;rounded=1;glass=0;strokeWidth=1;shadow=0;" vertex="1" parent="WIyWlLk6GJQsqaUBKTNV-1">
          <mxGeometry x="419.94" y="290" width="120" height="60" as="geometry" />
        </mxCell>
        <mxCell id="yen1Nik3F_ZIqoTktXVY-7" value="" style="edgeStyle=orthogonalEdgeStyle;rounded=0;orthogonalLoop=1;jettySize=auto;html=1;" edge="1" parent="WIyWlLk6GJQsqaUBKTNV-1" source="yen1Nik3F_ZIqoTktXVY-4" target="yen1Nik3F_ZIqoTktXVY-6">
          <mxGeometry relative="1" as="geometry" />
        </mxCell>
        <mxCell id="yen1Nik3F_ZIqoTktXVY-4" value="Ask for bid amount" style="whiteSpace=wrap;html=1;rounded=1;glass=0;strokeWidth=1;shadow=0;" vertex="1" parent="WIyWlLk6GJQsqaUBKTNV-1">
          <mxGeometry x="419.94" y="410" width="120" height="60" as="geometry" />
        </mxCell>
        <mxCell id="yen1Nik3F_ZIqoTktXVY-10" value="" style="edgeStyle=orthogonalEdgeStyle;rounded=0;orthogonalLoop=1;jettySize=auto;html=1;" edge="1" parent="WIyWlLk6GJQsqaUBKTNV-1" source="yen1Nik3F_ZIqoTktXVY-6" target="yen1Nik3F_ZIqoTktXVY-9">
          <mxGeometry relative="1" as="geometry" />
        </mxCell>
        <mxCell id="yen1Nik3F_ZIqoTktXVY-6" value="Create a dict with name as key and bid amount as value" style="whiteSpace=wrap;html=1;rounded=1;glass=0;strokeWidth=1;shadow=0;" vertex="1" parent="WIyWlLk6GJQsqaUBKTNV-1">
          <mxGeometry x="419.94" y="550" width="120" height="60" as="geometry" />
        </mxCell>
        <mxCell id="yen1Nik3F_ZIqoTktXVY-12" value="" style="edgeStyle=orthogonalEdgeStyle;rounded=0;orthogonalLoop=1;jettySize=auto;html=1;" edge="1" parent="WIyWlLk6GJQsqaUBKTNV-1" source="yen1Nik3F_ZIqoTktXVY-9">
          <mxGeometry relative="1" as="geometry">
            <mxPoint x="399.9988235294117" y="810" as="targetPoint" />
          </mxGeometry>
        </mxCell>
        <mxCell id="yen1Nik3F_ZIqoTktXVY-16" style="edgeStyle=orthogonalEdgeStyle;rounded=0;orthogonalLoop=1;jettySize=auto;html=1;exitX=1;exitY=0.5;exitDx=0;exitDy=0;" edge="1" parent="WIyWlLk6GJQsqaUBKTNV-1" source="yen1Nik3F_ZIqoTktXVY-9" target="yen1Nik3F_ZIqoTktXVY-17">
          <mxGeometry relative="1" as="geometry">
            <mxPoint x="620" y="800" as="targetPoint" />
          </mxGeometry>
        </mxCell>
        <mxCell id="yen1Nik3F_ZIqoTktXVY-9" value="Any other bidders?" style="rhombus;whiteSpace=wrap;html=1;rounded=1;glass=0;strokeWidth=1;shadow=0;" vertex="1" parent="WIyWlLk6GJQsqaUBKTNV-1">
          <mxGeometry x="439.94" y="680" width="80" height="80" as="geometry" />
        </mxCell>
        <mxCell id="yen1Nik3F_ZIqoTktXVY-14" style="edgeStyle=orthogonalEdgeStyle;rounded=0;orthogonalLoop=1;jettySize=auto;html=1;entryX=0;entryY=0.5;entryDx=0;entryDy=0;" edge="1" parent="WIyWlLk6GJQsqaUBKTNV-1" source="yen1Nik3F_ZIqoTktXVY-11" target="yen1Nik3F_ZIqoTktXVY-2">
          <mxGeometry relative="1" as="geometry">
            <Array as="points">
              <mxPoint x="250" y="840" />
              <mxPoint x="250" y="320" />
            </Array>
          </mxGeometry>
        </mxCell>
        <mxCell id="yen1Nik3F_ZIqoTktXVY-11" value="Clear the screen" style="whiteSpace=wrap;html=1;rounded=1;glass=0;strokeWidth=1;shadow=0;" vertex="1" parent="WIyWlLk6GJQsqaUBKTNV-1">
          <mxGeometry x="330" y="810" width="120" height="60" as="geometry" />
        </mxCell>
        <mxCell id="yen1Nik3F_ZIqoTktXVY-15" value="Yes" style="text;html=1;align=center;verticalAlign=middle;resizable=0;points=[];autosize=1;strokeColor=none;fillColor=none;" vertex="1" parent="WIyWlLk6GJQsqaUBKTNV-1">
          <mxGeometry x="400" y="688" width="40" height="30" as="geometry" />
        </mxCell>
        <mxCell id="yen1Nik3F_ZIqoTktXVY-17" value="Find the highest bidder from the dictionary and declare the winner" style="rounded=1;whiteSpace=wrap;html=1;" vertex="1" parent="WIyWlLk6GJQsqaUBKTNV-1">
          <mxGeometry x="590" y="810" width="120" height="60" as="geometry" />
        </mxCell>
        <mxCell id="yen1Nik3F_ZIqoTktXVY-18" value="No" style="text;html=1;align=center;verticalAlign=middle;resizable=0;points=[];autosize=1;strokeColor=none;fillColor=none;" vertex="1" parent="WIyWlLk6GJQsqaUBKTNV-1">
          <mxGeometry x="560" y="688" width="40" height="30" as="geometry" />
        </mxCell>
      </root>
    </mxGraphModel>
  </diagram>
</mxfile>
